<svg
    width="1024"
    height="1024"
    viewBox="125 405 210 210"
    xmlns="http://www.w3.org/2000/svg"
    version="1.1"
>
    <rect width="100%" height="100%" fill="none" />
    <path 
        d="M 132.245 506.750 L 132.500 603.500 229.250 603.755 L 326 604.010 326 554.005 L 326 504 293 504 L 260 504 260 518 L 260 532 276 532 L 292 532 292 550 L 292 568 245.500 568 L 199 568 199 536 L 199 504 182.500 504 L 166 504 166 474.500 L 166 445 229 445 L 292 445 292 466.500 L 292 488 309 488 L 326 488 326 449 L 326 410 228.995 410 L 131.990 410 132.245 506.750 M 182 474.500 L 182 488 198.500 488 L 215 488 215 520 L 215 552 229.500 552 L 244 552 244 520 L 244 488 260 488 L 276 488 276 474.500 L 276 461 L 229 461 L 182 461 182 474.500" 
        fill="#205027" 
        fill-rule="evenodd"
    />
</svg>
